<svg version="1.1" baseProfile="tiny" id="Layer_1" xmlns="http://www.w3.org/2000/svg" xmlns:xlink="http://www.w3.org/1999/xlink" x="0px" y="0px" width="167.754px" height="59.615px" viewBox="0 0 167.754 59.615" xml:space="preserve">
<g>
	<path d="M56.449,58.78h-4.543l-8.924-19.5H15.467l-8.922,19.5H2L28.026,2.017h2.397L56.449,58.78z M29.184,9.124L17.121,35.646   H41.33L29.184,9.124z"/>
</g>
<g>
	<path d="M95.532,5.662H69.03v22.703h25.838v3.658H69.03V55.06h27.168v3.658H64.62V2.001h30.912V5.662z"/>
</g>
<g>
	<path d="M110.991,55.071h28.027v3.662h-32.434V2.012h4.406V55.071z"/>
</g>
<g>
	<circle fill="#FFE200" cx="132.794" cy="22.275" r="5.516"/>
	<circle fill="#FFE200" cx="132.814" cy="7.59" r="5.519"/>
	<path fill="#FFE200" d="M138.37,36.519c0,3.045-2.469,5.516-5.516,5.516c-3.051,0-5.521-2.471-5.521-5.516   c0-3.049,2.471-5.522,5.521-5.522C135.901,30.997,138.37,33.47,138.37,36.519z"/>
	<circle fill="#FFE200" cx="147.523" cy="22.201" r="5.519"/>
	<circle fill="#FFE200" cx="147.543" cy="7.518" r="5.517"/>
	<circle fill="#FFE200" cx="161.402" cy="7.549" r="5.519"/>
</g>
</svg>

